HIERARCHY
ROOT Hips
{
    OFFSET 0.000000 0.000000 0.000000
    CHANNELS 6 Xposition Yposition Zposition Zrotation Xrotation Yrotation
    JOINT Spine
    {
        OFFSET -0.000000 6.993131 0.000000
        CHANNELS 3 Zrotation Xrotation Yrotation
        JOINT Spine1
        {
            OFFSET -0.000000 20.649729 0.000000
            CHANNELS 3 Zrotation Xrotation Yrotation
            JOINT Neck
            {
                OFFSET -0.000000 20.564924 1.869539
                CHANNELS 3 Zrotation Xrotation Yrotation
                JOINT Head
                {
                    OFFSET -0.000000 11.939490 -1.705642
                    CHANNELS 3 Zrotation Xrotation Yrotation
                    End Site
                    {
                        OFFSET -0.000000 21.320518 0.000000
                    }
                }
            }
            JOINT LeftShoulder
            {
                OFFSET 3.446977 19.850397 -0.038759
                CHANNELS 3 Zrotation Xrotation Yrotation
                JOINT LeftArm
                {
                    OFFSET 7.083611 0.000000 0.000000
                    CHANNELS 3 Zrotation Xrotation Yrotation
                    JOINT LeftForeArm
                    {
                        OFFSET 32.044487 0.000000 0.000000
                        CHANNELS 3 Zrotation Xrotation Yrotation
                        JOINT LeftHand
                        {
                            OFFSET 22.068741 0.000000 0.000000
                            CHANNELS 3 Zrotation Xrotation Yrotation
                            End Site
                            {
                                OFFSET 12.792312 0.000000 0.000000
                            }
                        }
                    }
                }
            }
            JOINT RightShoulder
            {
                OFFSET -3.365844 19.850397 -0.038759
                CHANNELS 3 Zrotation Xrotation Yrotation
                JOINT RightArm
                {
                    OFFSET -7.083611 0.000000 0.000000
                    CHANNELS 3 Zrotation Xrotation Yrotation
                    JOINT RightForeArm
                    {
                        OFFSET -32.044487 0.000000 0.000000
                        CHANNELS 3 Zrotation Xrotation Yrotation
                        JOINT RightHand
                        {
                            OFFSET -22.068741 0.000000 0.000000
                            CHANNELS 3 Zrotation Xrotation Yrotation
                            End Site
                            {
                                OFFSET -12.792312 0.000000 0.000000
                            }
                        }
                    }
                }
            }
        }
    }
    JOINT LeftUpLeg
    {
        OFFSET 8.528208 0.000000 0.000000
        CHANNELS 3 Zrotation Xrotation Yrotation
        JOINT LeftLeg
        {
            OFFSET -0.000000 -31.874865 0.000000
            CHANNELS 3 Zrotation Xrotation Yrotation
            JOINT LeftFoot
            {
                OFFSET -0.000000 -38.221939 0.000000
                CHANNELS 3 Zrotation Xrotation Yrotation
                JOINT LeftToeBase
                {
                    OFFSET -0.000000 -5.543335 12.792312
                    CHANNELS 3 Zrotation Xrotation Yrotation
                    End Site
                    {
                        OFFSET -0.000000 0.000000 3.411283
                    }
                }
            }
        }
    }
    JOINT RightUpLeg
    {
        OFFSET -8.528208 0.000000 0.000000
        CHANNELS 3 Zrotation Xrotation Yrotation
        JOINT RightLeg
        {
            OFFSET -0.000000 -31.874865 0.000000
            CHANNELS 3 Zrotation Xrotation Yrotation
            JOINT RightFoot
            {
                OFFSET -0.000000 -38.221939 0.000000
                CHANNELS 3 Zrotation Xrotation Yrotation
                JOINT RightToeBase
                {
                    OFFSET -0.000000 -5.543335 12.792312
                    CHANNELS 3 Zrotation Xrotation Yrotation
                    End Site
                    {
                        OFFSET -0.000000 0.000000 3.411283
                    }
                }
            }
        }
    }
}
MOTION
Frames:    14
Frame Time:    0.008333
25.237513    76.292946    31.918312    -2.801244    0.083899    96.808731    -1.810012    -8.000240    -0.782554    -0.397492    0.331030    -0.654801    3.778929    11.726265    7.329524    -4.414751    3.952849    6.993184    20.204950    -0.883281    -0.535990    -21.238695    -2.087459    -5.318498    4.055785    -0.607493    -1.265689    2.141876    -0.627914    -3.484269    -16.043999    0.710076    -1.951983    15.974833    -0.211666    3.265556    -7.407087    6.191619    2.995081    1.029047    6.383168    -0.134646    -2.991509    -1.608951    1.219823    1.132626    5.967338    -0.422281    -1.306119    -8.150830    -1.122072    0.000000    0.000000    0.000000    -8.231882    1.994997    -3.441949    10.973322    0.879805    -3.150376    -3.604166    -3.862841    -14.884972    0.000000    0.000000    0.000000    
25.265371    76.292023    31.927120    -2.793248    0.083932    96.844063    -1.856077    -8.005048    -0.797021    -0.303893    0.304996    -0.666417    3.690382    11.844108    7.362910    -4.385692    3.932540    7.038135    20.072548    -0.889186    -0.610262    -21.203262    -2.001547    -5.250411    4.035703    -0.647649    -1.305034    2.087981    -0.666609    -3.560672    -16.122631    0.750371    -1.970620    16.044201    -0.213311    3.314809    -7.388235    6.063793    3.043888    0.684142    6.259132    -0.017446    -2.980301    -1.600546    1.297495    1.141622    5.999098    -0.590466    -1.302859    -8.166442    -1.059599    0.000000    0.000000    0.000000    -8.219017    2.006873    -3.475177    10.973210    0.925311    -3.104176    -3.584067    -3.897479    -14.943978    0.000000    0.000000    0.000000    
25.276617    76.291641    31.930143    -2.795964    0.082596    96.859879    -1.857422    -7.999024    -0.803443    -0.318905    0.267974    -0.672918    3.717527    11.907057    7.383311    -4.389850    3.928813    7.059840    20.104353    -0.874632    -0.631680    -21.252489    -2.052946    -5.244949    4.020322    -0.615104    -1.304043    2.165107    -0.636978    -3.573996    -16.088530    0.759075    -1.949549    16.043795    -0.199980    3.305563    -7.403425    5.987235    3.088039    0.589764    6.185693    -0.046373    -2.974811    -1.603207    1.287813    1.140927    6.012866    -0.544579    -1.304918    -8.180923    -1.111603    0.000000    0.000000    0.000000    -8.206960    2.005922    -3.516518    10.957478    0.951661    -3.112264    -3.595405    -3.925008    -14.910398    0.000000    0.000000    0.000000    
25.291235    76.291695    31.934547    -2.794176    0.080347    96.876472    -1.876589    -8.023778    -0.805989    -0.290747    0.299514    -0.673697    3.732709    11.893011    7.393614    -4.417455    3.989596    7.068848    20.093527    -0.869072    -0.645547    -21.268866    -2.061530    -5.244379    4.009479    -0.620507    -1.312943    2.213480    -0.643665    -3.579189    -16.101297    0.725863    -1.968091    16.057886    -0.138189    3.303964    -7.407550    5.918845    3.150864    0.450662    6.121202    -0.137092    -2.967442    -1.580688    1.196298    1.125923    5.988277    -0.443982    -1.293016    -8.176156    -1.121239    0.000000    0.000000    0.000000    -8.209509    2.016472    -3.452823    10.974554    0.955596    -3.074394    -3.607652    -3.930068    -15.019382    0.000000    0.000000    0.000000    
25.302965    76.294205    31.937044    -2.796480    0.078971    96.896332    -1.868631    -8.033143    -0.820155    -0.315468    0.294142    -0.688250    3.756526    11.937016    7.418457    -4.427438    3.984130    7.093999    20.079777    -0.862461    -0.625041    -21.263124    -1.977823    -5.239679    4.021189    -0.674189    -1.344401    2.210142    -0.695414    -3.544888    -16.045082    0.730702    -1.938659    16.039688    -0.150222    3.297996    -7.455084    5.927415    3.192075    0.545014    6.133578    -0.147946    -2.964529    -1.579694    1.173938    1.131924    5.992142    -0.418646    -1.311465    -8.157354    -1.164114    0.000000    0.000000    0.000000    -8.208659    2.016056    -3.453664    10.982820    0.968982    -3.071669    -3.586183    -3.933227    -15.045201    0.000000    0.000000    0.000000    
25.317537    76.294388    31.940926    -2.792604    0.075605    96.908295    -1.895693    -8.052282    -0.814659    -0.274259    0.322019    -0.680548    3.774230    11.959817    7.417077    -4.459063    3.972201    7.088774    20.070820    -0.876910    -0.645422    -21.285175    -1.961189    -5.244067    4.007002    -0.687008    -1.325072    2.214840    -0.709654    -3.569679    -16.043365    0.726210    -1.977891    16.041929    -0.121546    3.312503    -7.465183    5.957211    3.245093    0.295206    6.167097    -0.271217    -2.955580    -1.570275    1.168701    1.128686    6.003922    -0.447277    -1.292879    -8.170672    -1.120463    0.000000    0.000000    0.000000    -8.202941    2.029642    -3.445480    10.986478    0.972264    -3.086900    -3.593996    -3.938595    -15.043451    0.000000    0.000000    0.000000    
25.329899    76.294540    31.943447    -2.802528    0.079891    96.926353    -1.909591    -8.076231    -0.820836    -0.263841    0.334697    -0.685332    3.773418    11.972424    7.431127    -4.467412    3.988109    7.103619    20.039001    -0.866882    -0.645025    -21.267143    -1.933538    -5.249753    3.984542    -0.697409    -1.311668    2.229026    -0.721205    -3.563636    -16.040237    0.734784    -1.978635    16.057375    -0.115516    3.301386    -7.557445    6.073621    3.340322    0.394155    6.291918    -0.318168    -2.962664    -1.579751    1.164923    1.136487    6.013823    -0.484211    -1.316726    -8.172853    -1.104091    0.000000    0.000000    0.000000    -8.217664    2.019159    -3.424416    11.006888    1.006728    -3.047456    -3.575417    -3.973036    -15.126255    0.000000    0.000000    0.000000    
25.343000    76.293999    31.948704    -2.797767    0.074613    96.946823    -1.914772    -8.087196    -0.824661    -0.274862    0.349954    -0.688542    3.844236    11.991590    7.442762    -4.525919    3.993191    7.107496    20.063602    -0.846517    -0.633851    -21.288361    -1.903770    -5.276037    3.979985    -0.730897    -1.304219    2.294068    -0.757414    -3.584960    -15.983936    0.723669    -1.967545    16.035000    -0.085437    3.275084    -7.642015    6.193628    3.389032    0.451559    6.417245    -0.361515    -2.950985    -1.567320    1.155994    1.137439    6.011234    -0.472818    -1.299718    -8.179851    -1.131275    0.000000    0.000000    0.000000    -8.205822    2.032380    -3.427861    11.003420    1.004942    -3.133542    -3.583134    -3.972310    -15.038603    0.000000    0.000000    0.000000    
25.356998    76.293388    31.951523    -2.792387    0.078762    96.966698    -1.935349    -8.098867    -0.821184    -0.261814    0.366504    -0.683396    3.865575    12.043758    7.439718    -4.543878    3.936466    7.101155    20.050169    -0.854216    -0.643932    -21.279612    -1.792284    -5.277732    3.991988    -0.731025    -1.303986    2.351292    -0.759175    -3.581091    -15.960382    0.748910    -1.989428    16.022951    -0.075635    3.278948    -7.691901    6.306674    3.399353    0.543156    6.531788    -0.433947    -2.950809    -1.556142    1.150518    1.132557    6.018443    -0.453040    -1.284162    -8.180072    -1.144195    0.000000    0.000000    0.000000    -8.210980    2.050475    -3.412108    11.013470    1.009118    -3.165972    -3.591101    -3.991378    -15.042360    0.000000    0.000000    0.000000    
25.370958    76.293648    31.955463    -2.791526    0.077795    96.975998    -1.921055    -8.119391    -0.807961    -0.338531    0.406801    -0.670383    4.007905    12.030121    7.438445    -4.620123    3.938315    7.085524    20.190952    -0.856908    -0.608656    -21.387705    -1.808947    -5.332293    4.017265    -0.676486    -1.298224    2.318940    -0.704516    -3.633483    -15.852535    0.707747    -2.037009    15.984387    0.000072    3.273581    -7.732005    6.356142    3.403337    0.661632    6.581792    -0.511549    -2.946125    -1.545147    1.154869    1.137479    6.013299    -0.469931    -1.341128    -8.181886    -1.150963    0.000000    0.000000    0.000000    -8.217729    2.050331    -3.383849    11.032204    1.036945    -3.117967    -3.578860    -4.013143    -15.121184    0.000000    0.000000    0.000000    
25.389465    76.290794    31.963869    -2.779098    0.066052    96.993614    -1.936944    -8.146355    -0.806115    -0.307899    0.456652    -0.666983    4.011175    12.066550    7.441245    -4.628121    3.877195    7.086327    20.180925    -0.872554    -0.609147    -21.379457    -1.605510    -5.298410    4.023665    -0.739325    -1.382307    2.336250    -0.764432    -3.610087    -15.848951    0.701946    -2.032116    15.984929    0.034513    3.239582    -7.756612    6.416780    3.399455    0.638053    6.643468    -0.422221    -2.915984    -1.520085    1.168278    1.125087    6.009224    -0.511180    -1.327442    -8.212801    -1.145450    0.000000    0.000000    0.000000    -8.197826    2.072715    -3.379586    11.039402    1.039625    -3.105517    -3.624524    -4.016327    -15.158981    0.000000    0.000000    0.000000    
25.403816    76.289192    31.967964    -2.772301    0.067732    97.004364    -1.944876    -8.158474    -0.794919    -0.321304    0.483493    -0.654953    4.056169    12.108618    7.440113    -4.653504    3.803491    7.079225    20.215994    -0.858655    -0.602391    -21.409239    -1.593420    -5.325988    4.033713    -0.717645    -1.388589    2.289517    -0.741680    -3.642956    -15.807682    0.710615    -2.058856    15.968142    0.039603    3.229513    -7.724890    6.387472    3.377057    0.281813    6.613372    -0.282057    -2.908376    -1.499817    1.178723    1.118580    6.007128    -0.508875    -1.311547    -8.220223    -1.162326    0.000000    0.000000    0.000000    -8.198454    2.087821    -3.363532    11.046550    1.047632    -3.116025    -3.635405    -4.032257    -15.167048    0.000000    0.000000    0.000000    
25.418139    76.286293    31.971853    -2.765642    0.068585    97.024277    -1.946393    -8.165606    -0.796118    -0.334892    0.494370    -0.655714    4.064240    12.146637    7.441160    -4.650910    3.761929    7.080029    20.222511    -0.868261    -0.607990    -21.419153    -1.529178    -5.307631    4.055908    -0.704138    -1.406797    2.203067    -0.724470    -3.647609    -15.774691    0.707640    -2.060347    15.953964    0.071479    3.213974    -7.715650    6.367895    3.365326    0.244118    6.592777    -0.314990    -2.905397    -1.490612    1.169341    1.117486    6.011703    -0.550784    -1.321415    -8.237376    -1.118957    0.000000    0.000000    0.000000    -8.198942    2.098981    -3.374478    11.056463    1.066474    -3.098159    -3.622423    -4.053350    -15.195502    0.000000    0.000000    0.000000    
25.431961    76.284935    31.977097    -2.756005    0.070762    97.038002    -1.963663    -8.167717    -0.782627    -0.334607    0.510556    -0.641008    4.101538    12.191487    7.440812    -4.665611    3.687445    7.075292    20.234556    -0.844350    -0.605636    -21.433271    -1.578656    -5.357232    4.064693    -0.637521    -1.378767    2.073762    -0.654164    -3.623338    -15.744898    0.694972    -2.100443    15.942093    0.125214    3.201549    -7.697435    6.351511    3.360679    0.128501    6.575839    -0.332343    -2.901618    -1.473420    1.184135    1.066845    5.999227    -0.325819    -1.264744    -8.238995    -1.251801    0.000000    0.000000    0.000000    -8.191714    2.110776    -3.374871    11.056507    1.086463    -3.079102    -3.646286    -4.075191    -15.240919    0.000000    0.000000    0.000000    
